<?xml version="1.0" standalone="no"?>
<!DOCTYPE svg PUBLIC "-//W3C//DTD SVG 20010904//EN"
 "http://www.w3.org/TR/2001/REC-SVG-20010904/DTD/svg10.dtd">
<svg version="1.0" xmlns="http://www.w3.org/2000/svg"
 width="452.000000pt" height="452.000000pt" viewBox="0 0 452.000000 452.000000"
 preserveAspectRatio="xMidYMid meet">
<metadata>
Created by potrace 1.11, written by Peter Selinger 2001-2013
</metadata>
<g transform="translate(0.000000,452.000000) scale(0.100000,-0.100000)"
fill="#000000" stroke="none">
<path d="M2465 3510 c-462 -308 -840 -566 -839 -573 1 -14 141 -227 149 -227
3 0 222 144 486 321 l481 321 77 -14 76 -14 190 95 190 95 -98 31 -98 31 195
130 195 130 -77 117 c-42 64 -79 117 -82 117 -3 0 -383 -252 -845 -560z"/>
<path d="M1935 3659 c-700 -62 -1236 -337 -1348 -694 -22 -70 -22 -75 -22
-775 0 -704 0 -705 23 -777 74 -237 322 -431 721 -563 282 -95 591 -140 951
-140 473 0 878 81 1202 240 251 124 410 278 470 458 22 66 22 76 26 714 2 403
-1 681 -7 739 -12 109 -52 203 -124 291 -26 32 -47 59 -47 61 0 1 85 45 188
96 l189 94 -60 128 -61 127 -988 -494 c-543 -272 -988 -496 -988 -499 0 -10
120 -245 125 -245 3 0 298 146 655 325 357 179 657 325 665 325 21 0 119 -103
141 -147 28 -60 30 -131 4 -185 -96 -204 -492 -384 -1001 -455 -156 -21 -583
-24 -739 -5 -607 76 -1060 310 -1060 547 0 197 322 400 790 499 63 13 139 27
169 31 49 7 80 24 285 161 l231 154 -145 -1 c-80 -1 -190 -6 -245 -10z m-877
-1440 c62 -32 166 -74 232 -96 l119 -38 1 -487 c0 -269 -2 -488 -5 -488 -3 0
-51 18 -108 41 -187 74 -333 174 -403 275 l-39 56 -3 430 -3 429 48 -33 c26
-18 99 -58 161 -89z m2610 -425 l-3 -312 -39 -56 c-67 -97 -212 -198 -386
-269 -47 -19 -95 -38 -107 -42 l-23 -6 0 488 1 488 119 39 c127 41 302 122
385 179 l50 34 3 -116 c1 -64 1 -256 0 -427z m-1738 200 c198 -19 602 -14 775
10 61 9 111 16 113 16 1 0 2 -220 2 -490 l0 -489 -32 -5 c-18 -3 -60 -10 -93
-16 -260 -42 -652 -38 -930 11 l-65 11 0 490 0 491 33 -7 c17 -4 106 -14 197
-22z"/>
</g>
</svg>
